<svg xmlns="http://www.w3.org/2000/svg" width="1200" height="675" viewBox="0 0 1200 675">
<rect width="100%" height="100%" fill="white"/>
<text x="600.0" y="42" text-anchor="middle" font-family="Arial" font-size="30" font-weight="700" fill="#222">Straight line 6 robots: F1 vs MOTA</text>
<line x1="90" x2="1155" y1="535.0" y2="535.0" stroke="#ddd"/>
<text x="78" y="540.0" text-anchor="end" font-family="Arial" font-size="18" fill="#555">0</text>
<line x1="90" x2="1155" y1="447.0" y2="447.0" stroke="#ddd"/>
<text x="78" y="452.0" text-anchor="end" font-family="Arial" font-size="18" fill="#555">20</text>
<line x1="90" x2="1155" y1="359.0" y2="359.0" stroke="#ddd"/>
<text x="78" y="364.0" text-anchor="end" font-family="Arial" font-size="18" fill="#555">40</text>
<line x1="90" x2="1155" y1="271.0" y2="271.0" stroke="#ddd"/>
<text x="78" y="276.0" text-anchor="end" font-family="Arial" font-size="18" fill="#555">60</text>
<line x1="90" x2="1155" y1="183.0" y2="183.0" stroke="#ddd"/>
<text x="78" y="188.0" text-anchor="end" font-family="Arial" font-size="18" fill="#555">80</text>
<line x1="90" x2="1155" y1="95.0" y2="95.0" stroke="#ddd"/>
<text x="78" y="100.0" text-anchor="end" font-family="Arial" font-size="18" fill="#555">100</text>
<line x1="90" x2="90" y1="95" y2="535" stroke="#333"/>
<line x1="90" x2="1155" y1="535" y2="535" stroke="#333"/>
<rect x="119.8" y="99.8" width="64.4" height="435.2" fill="#4C78A8"/>
<text x="152.0" y="92.8" text-anchor="middle" font-family="Arial" font-size="15" fill="#333">98.9</text>
<rect x="196.5" y="110.4" width="64.4" height="424.6" fill="#59A14F"/>
<text x="228.7" y="103.4" text-anchor="middle" font-family="Arial" font-size="15" fill="#333">96.5</text>
<text x="196.5" y="567.0" text-anchor="middle" font-family="Arial" font-size="17" fill="#333">Centroid</text>
<text x="196.5" y="589.0" text-anchor="middle" font-family="Arial" font-size="17" fill="#333">conf 0.25</text>
<rect x="332.8" y="97.0" width="64.4" height="438.0" fill="#4C78A8"/>
<text x="365.0" y="90.0" text-anchor="middle" font-family="Arial" font-size="15" fill="#333">99.5</text>
<rect x="409.5" y="103.2" width="64.4" height="431.8" fill="#59A14F"/>
<text x="441.7" y="96.2" text-anchor="middle" font-family="Arial" font-size="15" fill="#333">98.1</text>
<text x="409.5" y="567.0" text-anchor="middle" font-family="Arial" font-size="17" fill="#333">Centroid</text>
<text x="409.5" y="589.0" text-anchor="middle" font-family="Arial" font-size="17" fill="#333">conf 0.35</text>
<rect x="545.8" y="99.8" width="64.4" height="435.2" fill="#4C78A8"/>
<text x="578.0" y="92.8" text-anchor="middle" font-family="Arial" font-size="15" fill="#333">98.9</text>
<rect x="622.5" y="110.4" width="64.4" height="424.6" fill="#59A14F"/>
<text x="654.7" y="103.4" text-anchor="middle" font-family="Arial" font-size="15" fill="#333">96.5</text>
<text x="622.5" y="567.0" text-anchor="middle" font-family="Arial" font-size="17" fill="#333">SORT</text>
<text x="622.5" y="589.0" text-anchor="middle" font-family="Arial" font-size="17" fill="#333">conf 0.25</text>
<rect x="758.8" y="99.8" width="64.4" height="435.2" fill="#4C78A8"/>
<text x="791.0" y="92.8" text-anchor="middle" font-family="Arial" font-size="15" fill="#333">98.9</text>
<rect x="835.5" y="111.9" width="64.4" height="423.1" fill="#59A14F"/>
<text x="867.7" y="104.9" text-anchor="middle" font-family="Arial" font-size="15" fill="#333">96.2</text>
<text x="835.5" y="567.0" text-anchor="middle" font-family="Arial" font-size="17" fill="#333">DeepSORT-lite</text>
<text x="835.5" y="589.0" text-anchor="middle" font-family="Arial" font-size="17" fill="#333">conf 0.25</text>
<rect x="971.8" y="97.0" width="64.4" height="438.0" fill="#4C78A8"/>
<text x="1004.0" y="90.0" text-anchor="middle" font-family="Arial" font-size="15" fill="#333">99.5</text>
<rect x="1048.5" y="105.3" width="64.4" height="429.7" fill="#59A14F"/>
<text x="1080.7" y="98.3" text-anchor="middle" font-family="Arial" font-size="15" fill="#333">97.7</text>
<text x="1048.5" y="567.0" text-anchor="middle" font-family="Arial" font-size="17" fill="#333">DeepSORT-lite</text>
<text x="1048.5" y="589.0" text-anchor="middle" font-family="Arial" font-size="17" fill="#333">conf 0.35</text>
<rect x="90" y="64" width="18" height="18" fill="#4C78A8"/>
<text x="116" y="79" font-family="Arial" font-size="18" fill="#333">F1 (%)</text>
<rect x="300" y="64" width="18" height="18" fill="#59A14F"/>
<text x="326" y="79" font-family="Arial" font-size="18" fill="#333">MOTA (%)</text>
</svg>